<svg width="24" height="24" viewBox="0 0 24 24" fill="none" xmlns="http://www.w3.org/2000/svg">
<path d="M19.4119 6.81282C18.4397 5.83843 17.2842 5.06614 16.0121 4.54046C14.74 4.01479 13.3764 3.74614 12 3.75001H11.9625C6.19406 3.7697 1.5 8.53126 1.5 14.3559V16.5C1.5 16.8978 1.65804 17.2794 1.93934 17.5607C2.22064 17.842 2.60218 18 3 18H21C21.3978 18 21.7794 17.842 22.0607 17.5607C22.342 17.2794 22.5 16.8978 22.5 16.5V14.25C22.5039 12.8676 22.2328 11.4981 21.7027 10.2214C21.1725 8.94458 20.3938 7.78595 19.4119 6.81282ZM21 16.5H11.2228L16.3566 9.44064C16.4737 9.27977 16.5221 9.07896 16.4911 8.8824C16.4602 8.68584 16.3524 8.50962 16.1916 8.39251C16.0307 8.2754 15.8299 8.22699 15.6333 8.25794C15.4368 8.28888 15.2605 8.39664 15.1434 8.55751L9.3675 16.5H3V14.3559C3 14.0672 3.01406 13.7822 3.04031 13.5H5.25C5.44891 13.5 5.63968 13.421 5.78033 13.2803C5.92098 13.1397 6 12.9489 6 12.75C6 12.5511 5.92098 12.3603 5.78033 12.2197C5.63968 12.079 5.44891 12 5.25 12H3.30656C4.27406 8.35689 7.43156 5.60251 11.25 5.28189V7.50001C11.25 7.69892 11.329 7.88969 11.4697 8.03034C11.6103 8.17099 11.8011 8.25001 12 8.25001C12.1989 8.25001 12.3897 8.17099 12.5303 8.03034C12.671 7.88969 12.75 7.69892 12.75 7.50001V5.28095C14.6106 5.43753 16.3767 6.1681 17.8042 7.37172C19.2316 8.57534 20.2501 10.1926 20.7188 12H18.75C18.5511 12 18.3603 12.079 18.2197 12.2197C18.079 12.3603 18 12.5511 18 12.75C18 12.9489 18.079 13.1397 18.2197 13.2803C18.3603 13.421 18.5511 13.5 18.75 13.5H20.9691C20.9888 13.7484 21 13.9978 21 14.25V16.5Z" fill="currentColor"/>
</svg>
